<svg xmlns="http://www.w3.org/2000/svg"  viewBox="0 0 135 135" width="264px" height="264px"><g id="App_Development"><path fill="#a4bcd1" d="M108.7698593,20.5025787l-0.893158-2.8887424 c-0.2628784-0.8502235-1.0547638-1.4254074-1.9446106-1.4124622l-2.8404388,0.0413227 c-0.8880615,0.0129204-1.6617813,0.6085739-1.9013824,1.4637928l-0.2066193,0.7374935l-0.623024,2.1850033 c-1.09478,0.344223-2.1147537,0.78862-3.096962,1.3499622l-2.6703796-1.4155731 c-0.7903976-0.4189911-1.7626419-0.2645855-2.3843307,0.3786659l-1.9756546,2.0441818 c-0.6195221,0.6410103-0.7413712,1.6140881-0.2990417,2.3880711l1.4987793,2.6225166 c-0.5323944,0.9985771-0.9694595,2.0434933-1.2629547,3.1428223l-2.8988571,0.9068642 c-0.8484955,0.2654381-1.4208374,1.0579605-1.4059982,1.9468765l0.0474014,2.8401718 c0.014801,0.8864326,0.6100388,1.6579056,1.4637299,1.8970909l2.9201889,0.818161 c0.3386536,1.0823898,0.7997894,2.1395035,1.3554916,3.1093559l-1.4111862,2.6740494 c-0.4151459,0.7866516-0.262352,1.7527809,0.3752823,2.3729439l2.0321274,1.9764328 c0.637413,0.6199455,1.6070099,0.7460022,2.381752,0.3096466l2.6456299-1.4901047 c0.9805984,0.5255165,2.0323639,0.9446983,3.137207,1.2506218l0.9027176,2.8889465 c0.2647552,0.8473053,1.055191,1.419632,1.9428101,1.406723l2.8420715-0.0413284 c0.8894882-0.0129356,1.6640778-0.6104355,1.90242-1.4674797l0.8136444-2.9256554 c1.0880432-0.3262978,2.132782-0.7818451,3.1025314-1.3375778l2.6876068,1.4165878 c0.7888184,0.4157715,1.7574387,0.2606125,2.3769073-0.3807449l1.9821243-2.0521545 c0.6176224-0.6394424,0.7403793-1.6092491,0.3015671-2.3824196l-1.4928131-2.6302834 c0.3821564-0.7374878,0.7171631-1.5133247,0.9928665-2.3218422c0.0896378-0.2635841,0.1737289-0.5394745,0.2453995-0.8098602 l0.0123825-0.0055771l2.8889389-0.9026222c0.8473434-0.2647438,1.419693-1.0551987,1.4067612-1.9428368l-0.0414047-2.8420601 c-0.0129623-0.8894615-0.610466-1.6640301-1.4675064-1.9023781l-2.9257126-0.8136578 c-0.0965347-0.3136082-0.1998825-0.6092567-0.3033447-0.9049492c-0.2846832-0.7645035-0.6312866-1.5011272-1.0397644-2.2099819 l1.4118576-2.6752357c0.4148636-0.7861023,0.2625961-1.7515221-0.3740768-2.3717899l-2.036171-1.9837055 c-0.6389313-0.6224632-1.6122589-0.7479439-2.3881607-0.3078804l-2.6370544,1.4956436L108.7698593,20.5025787z M104.8931122,41.8056679c-3.5477066,0.0562782-6.4869156-2.7887535-6.5378189-6.3505478 c-0.0563049-3.5476761,2.7930832-6.4771824,6.3408127-6.5334015c3.5618286-0.0508747,6.4869995,2.788784,6.5432434,6.3364868 C111.2902527,38.8200035,108.4505615,41.7450714,104.8931122,41.8056679z"/><path fill="#bcdae6" d="M103.9614792,51.5831223l-1.2006149-3.8442459l-1.2924805-0.3574104 c-0.9272919-0.2564926-1.8124695-0.6094627-2.630127-1.048027l-1.1914978-0.6387634l-3.5276184,1.9868431l-1.5448532-1.5022202 l1.8835297-3.5697937l-0.671875-1.1737671c-0.47155-0.8235321-0.8553696-1.704834-1.1418686-2.6200905l-0.39814-1.2750931 l-3.8803635-1.0869522l-0.0360947-2.1608315l3.86866-1.2103119l0.3490753-1.3097935 c0.2290421-0.858799,0.5735931-1.7153721,1.0560074-2.6176014l0.6403046-1.1991329l-2.0051804-3.5056133l1.5027161-1.5547256 l3.5681763,1.8906002l1.1755371-0.6722126c0.8290787-0.4744682,1.6832809-0.8467979,2.6133881-1.1386719l1.2641525-0.3977947 l1.1057892-3.8871155l2.1593018-0.0253754l1.1421509,3.6911697l5.339241,2.1116371l3.3643799-1.908617l1.5486069,1.5088196 l-1.8874283,3.5748539l0.6783524,1.1755447c0.3378754,0.5874157,0.6294174,1.2066536,0.8662949,1.8403854 c0.0925064,0.2693634,0.1772919,0.5120983,0.2563934,0.7694225l0.3955307,1.2866249l3.8941498,1.0823898l0.0316162,2.1629448 l-2.7023087,0.8441162l-1.2070694,0.5376778l-0.3129654,1.1459541c-0.0565872,0.215023-0.1233063,0.4345055-0.1955414,0.6446724 c-0.2282028,0.6713371-0.5136337,1.338089-0.8478775,1.9808426l-0.6149597,1.1849327l1.9838791,3.4969788l-1.5084991,1.562603 l-3.58255-1.8889809l-1.1741257,0.6731567c-0.8244781,0.4729462-1.6939926,0.8483086-2.5849609,1.1152954l-1.3000488,0.3895988 l-1.0850983,3.905056L103.9614792,51.5831223z M103.0657196,26.6309834 c-4.2219086,0.8358784-7.2371216,4.5636272-7.1693497,8.8629131c0.0333328,2.3756104,0.9939117,4.5994644,2.7032089,6.2582588 c1.7091751,1.6582069,3.9571381,2.5505333,6.3318329,2.5125046c0.5368576-0.0089684,1.0715714-0.0658684,1.5910645-0.1687202 c4.2195511-0.8354111,7.2377167-4.5668068,7.1760788-8.8722c-0.0783768-4.9031448-4.1331863-8.8311024-9.038002-8.7609978 C104.1223984,26.4713554,103.5863876,26.5278988,103.0657196,26.6309834z"/><path fill="#76819f" d="M104.346489,12.1093674v110.7745895c0,4.4750443-3.6315994,8.1165771-8.1165848,8.1165771H39.0466461 c-1.6371727,0-3.1454086-0.4861908-4.4254494-1.3197021c-2.2226257-1.4486389-3.6812-3.9491272-3.6812-6.796875V12.1093674 c0-4.4849806,3.6316013-8.1165819,8.1066494-8.1165819h57.1832581c1.6273041,0,3.1553421,0.4762597,4.4353867,1.329639 C102.8779831,6.7611361,104.346489,9.2616205,104.346489,12.1093674z"/><path d="M60.508976,79.6913681l-2.9469452-0.8830566c-0.2778587-0.8037186-0.60532-1.5876312-0.962513-2.3615494 l1.4784393-2.6691513c1.2998428-2.3318176,0.8930473-5.2887039-0.9823151-7.1838684l-3.0561409-3.1057396 c-1.1311188-1.1411095-2.6988869-1.7959671-4.306324-1.7959671c-1.0021782,0-1.9944267,0.2480621-2.8775444,0.7243195 l-2.8378143,1.5379753l-2.1630936-0.9128532l-0.8831139-3.076004c-0.7342529-2.5698891-3.1156731-4.3658562-5.7848244-4.3857193 l-4.2467899-0.0198669V81.25914c0.605257-0.1785965,1.2403088-0.2679291,1.9050999-0.2679291v-2.9767456l0.0198631,2.9767456 c3.8101997,0.0297928,6.8961372,3.1355362,6.8762741,6.9259338c-0.0198669,3.79039-3.1256065,6.8762741-6.9358063,6.8762741 c-0.6350517,0-1.2701054-0.0893326-1.8654308-0.2679291v24.9451294l3.9590588,0.0297394 c2.6890144,0,5.0207748-1.7364349,5.7947578-4.3162613l0.8830528-2.9469452 c0.7938461-0.2778549,1.5677681-0.5953827,2.3318214-0.9525757l2.6988831,1.4883728 c0.8930473,0.4961166,1.9051018,0.7640457,2.9271469,0.7640457c1.6074333,0,3.1256027-0.6251221,4.2666512-1.7662277 l3.1057434-3.0858765c1.8852959-1.8753662,2.321888-4.8223114,1.0517807-7.1640625l-1.4685097-2.7088165 c0.3571968-0.7541199,0.6846542-1.5181732,0.9723854-2.3020248l2.9668121-0.8632507 c2.5600166-0.7342529,4.3559799-3.1057434,4.3659134-5.7748947l0.0297394-4.3559799 C64.8351669,82.8566437,63.0689926,80.4554214,60.508976,79.6913681z" opacity=".05"/><path fill="#a3acbf" d="M92.7981491,3.9949224L55.3736267,130.995636H39.0499115 c-1.6335831,0-3.1558228-0.4826355-4.4243355-1.3180237L71.6602173,3.9949224H92.7981491z"/><path fill="#a3acbf" d="M100.6629639,5.3129511L63.6283188,130.995636h-5.7733345L95.2794724,3.9949224h0.9529648 C97.8660507,3.9949224,99.3882523,4.4775977,100.6629639,5.3129511z"/><path fill="#fff" d="M100.6454239,12.1093674v110.784523c0,2.4210815-1.9844971,4.415451-4.4155197,4.415451H39.0466461 c-1.3097725,0-2.490551-0.5754547-3.2843399-1.4784393c-0.7045174-0.7838516-1.1411095-1.8157654-1.1411095-2.9370117 V12.1093674c0-2.4310198,1.9844971-4.4254479,4.4254494-4.4254479h10.2201424 c0,2.1631541,1.7562981,3.9293237,3.9193916,3.9293237h32.0495987c2.192894,0,3.9392624-1.7661695,3.9392624-3.9293237h7.054863 c1.3097763,0,2.4905548,0.575521,3.2942734,1.4784999C100.2187653,9.9462738,100.6454239,10.9781904,100.6454239,12.1093674z"/><path fill="#d4f4ff" d="M100.6529465,12.1086931v2.7452345c0-2.4342165-1.9838562-4.4288702-4.4180679-4.4288702h-7.0559082 c0,2.1768665-1.7479019,3.9353771-3.9355011,3.9353771H53.1914978c-2.1661339,0-3.9247742-1.7585106-3.9247742-3.9353771 H39.0474281c-2.4342155,0-4.4180069,1.9946537-4.4180069,4.4288702v-2.7452345 c0-2.4342155,1.9837914-4.4288697,4.4180069-4.4288697h10.2192955c0,2.1661325,1.7586403,3.9356389,3.9247742,3.9356389 h32.0519714c2.1875992,0,3.9355011-1.7695065,3.9355011-3.9356389h7.0559082 C98.6690903,7.6798234,100.6529465,9.6744776,100.6529465,12.1086931z"/><path fill="#d4f4ff" d="M100.6567688,119.9440384v2.9392548c0,2.4442368-1.9801025,4.4243774-4.4243317,4.4243774H39.0499115 c-2.4380417,0-4.4243355-1.9801407-4.4243355-4.4243774v-2.9392548c0,2.4442291,1.9862938,4.4243698,4.4243355,4.4243698 h57.1825256C98.6766663,124.3684082,100.6567688,122.3882675,100.6567688,119.9440384z"/><path fill="#d4f4ff" d="M91.7203979,7.6798234L56.4513626,127.3093033H39.0474281 c-1.3082809,0-2.4878197-0.5791016-3.2813339-1.4796906L69.4158936,11.6154623h15.8275757 c2.1875992,0,3.9355011-1.7695065,3.9355011-3.9356389H91.7203979z"/><path d="M64.8252335,85.5158615l-0.0297394,4.3559799c-0.0099335,2.6691513-1.8058968,5.0406418-4.3659134,5.7748947 l-2.9668121,0.8632507c-0.2877312,0.7838516-0.6151886,1.547905-0.9723854,2.3020248l1.4685097,2.7088165 c1.2701073,2.3417511,0.8335152,5.2886963-1.0517807,7.1640625l-3.1057434,3.0858765 c-1.1410484,1.1411057-2.6592178,1.7662277-4.2666512,1.7662277c-1.0220451,0-2.0340996-0.2679291-2.9271469-0.7640457 l-2.6988831-1.4883728c-0.7640533,0.357193-1.5379753,0.6747208-2.3318214,0.9525757l-0.8830528,2.9469452 c-0.773983,2.5798264-3.1057434,4.3162613-5.7947578,4.3162613h-0.2778587V55.5797539h0.5655899 c2.6691513,0.0198631,5.0505714,1.8158302,5.7848244,4.3857193l0.8831139,3.076004l2.1630936,0.9128532l2.8378143-1.5379753 c0.8831177-0.4762573,1.8753662-0.7243195,2.8775444-0.7243195c1.6074371,0,3.1752052,0.6548576,4.306324,1.7959671 l3.0561409,3.1057396c1.8753624,1.8951645,2.2821579,4.8520508,0.9823151,7.1838684l-1.4784393,2.6691513 c0.357193,0.7739182,0.6846542,1.5578308,0.962513,2.3615494l2.9469452,0.8830566 C63.0689926,80.4554214,64.8351669,82.8566437,64.8252335,85.5158615z" opacity=".05"/><g><path fill="#d4f4ff" d="M99.526947,9.1597786L64.7083359,127.3093033h-5.7691536L94.1974792,7.6798234h2.0373993 C97.5431519,7.6798234,98.7226944,8.2589245,99.526947,9.1597786z"/></g><g><path fill="#ff4b3a" d="M97.8054199,128.9086456l0.0000229-5.024231h10.5280609l-0.0000229,5.024231 c-0.0000076,1.1466064-0.9381866,2.0847778-2.0847855,2.0847778h-6.3585205 C98.743576,130.9934235,97.8054123,130.0552521,97.8054199,128.9086456z"/><rect width="10.528" height="6.484" x="97.805" y="117.401" fill="#f3fcff"/><polygon fill="#ffe93e" points="103.0605087,59.6377831 108.3366394,73.0178909 108.3361359,117.4038925 97.8068237,117.4038925 97.8073273,73.0178909"/><polygon fill="#ffff9a" points="103.0605087,59.6377831 105.7043686,66.3278351 103.0604401,73.0178909 103.0599365,117.4038925 97.8068237,117.4038925 97.8073273,73.0178909"/><polygon fill="#ffcb8f" points="97.8112183,73.01828 103.0700989,59.6410103 108.3288422,73.01828"/></g><g><path fill="#ff4b3a" d="M62.3924141,20.4780121v15.762455c0,1.5219154-1.233757,2.7556725-2.7556725,2.7556725h-15.762455 c-1.5219154,0-2.7556725-1.233757-2.7556725-2.7556725v-15.762455c0-1.5219154,1.233757-2.7556725,2.7556725-2.7556725 h15.762455C61.1586571,17.7223396,62.3924141,18.9560966,62.3924141,20.4780121z"/><path fill="#fc6868" d="M62.3924141,20.4807568v0.0893288h-15.667572c-1.5181694,0-2.7584801,1.2403107-2.7584801,2.758419 v15.667635h-0.0892677c-1.5281029,0-2.7584801-1.2303772-2.7584801-2.7584801V20.4807568 c0-1.5280399,1.2303772-2.7584171,2.7584801-2.7584171h15.7568436 C61.1620369,17.7223396,62.3924141,18.9527168,62.3924141,20.4807568z"/></g><g><path fill="#00ffc1" d="M94.1678696,20.4780121v15.762455c0,1.5219154-1.233757,2.7556725-2.7556686,2.7556725H75.6497421 c-1.5219116,0-2.7556686-1.233757-2.7556686-2.7556725v-15.762455c0-1.5219154,1.233757-2.7556725,2.7556686-2.7556725 h15.7624588C92.9341125,17.7223396,94.1678696,18.9560966,94.1678696,20.4780121z"/><path fill="#fff" d="M94.1678696,20.4807568v0.0893288h-15.667572c-1.5181732,0-2.7584839,1.2403107-2.7584839,2.758419 v15.667635h-0.0892639c-1.5280991,0-2.7584763-1.2303772-2.7584763-2.7584801V20.4807568 c0-1.5280399,1.2303772-2.7584171,2.7584763-2.7584171h15.7568436 C92.9374924,17.7223396,94.1678696,18.9527168,94.1678696,20.4807568z" opacity=".3"/></g><g><path fill="#52eef8" d="M39.391098,65.2397537l-1.2797928-4.4552841 c-0.3766708-1.3112946-1.5726738-2.2173538-2.9369812-2.2249832l-4.3549538-0.0243607 c-1.3615742-0.007618-2.5658817,0.8814812-2.9595318,2.1849174l-0.3394604,1.124012l-1.0224056,3.3298187 c-1.6886463,0.4938049-3.2657261,1.1434631-4.7885284,1.9735336l-4.0493145-2.2521667 c-1.1985416-0.6666031-2.693512-0.4599609-3.6662617,0.5067902l-3.0912933,3.0722122 c-0.9693613,0.9633789-1.1861706,2.4510956-0.5320816,3.6510773l2.2162771,4.0659256 c-0.846859,1.514122-1.5490227,3.1022263-2.0328264,4.7781525l-4.4712019,1.3004913 c-1.3087234,0.3806534-2.2104526,1.577713-2.2151554,2.9406586l-0.0150259,4.3547287 c-0.0046897,1.3591309,0.8838458,2.5599823,2.1849532,2.9529495l4.4506397,1.3441925 c0.4856577,1.669487,1.1598244,3.3040085,1.9816294,4.8077011l-2.2455549,4.055069 c-0.6605968,1.1929169-0.4562273,2.6784744,0.5019579,3.6487045l3.0537071,3.0921173 c0.9578552,0.969902,2.4401102,1.1930466,3.6410589,0.5481415l4.1010914-2.2022705 c1.4867802,0.835762,3.0859337,1.5107346,4.7699299,2.0137482l1.2944393,4.4558945 c0.3796501,1.3068771,1.5735168,2.2085114,2.9344082,2.2161331l4.3574486,0.0243988 c1.3637505,0.0076294,2.5694504-0.8842697,2.9612389-2.1905365l1.3374252-4.4591675 c1.6777763-0.4665375,3.2931595-1.1325226,4.7966957-1.9543762l4.0756874,2.2542496 c1.1962242,0.6616211,2.6856537,0.4537125,3.6549492-0.5102081l3.1014519-3.0842285 c0.9664001-0.9610367,1.1844978-2.4437103,0.5357819-3.642334l-2.2068939-4.0776443 c0.6085129-1.1185913,1.1459541-2.2974014,1.5934982-3.5281448c0.1455231-0.4012375,0.2829323-0.8215103,0.4011421-1.2337341 l0.0191498-0.0081635l4.4558754-1.2942963c1.3069344-0.379631,2.2086029-1.5735245,2.2161865-2.9344406l0.0242882-4.3574371 c0.0075989-1.3637161-0.8843117-2.5693817-2.1905746-2.961174l-4.4592552-1.3374557 c-0.1382866-0.4836655-0.2875633-0.9400101-0.4370079-1.3964233c-0.4127541-1.1805801-0.9212646-2.320343-1.5254669-3.4194489 l2.2466087-4.0568619c0.6601563-1.1920929,0.4565811-2.6765366-0.5001259-3.646904l-3.0596924-3.1033859 c-0.9600945-0.9738007-2.4480934-1.1961823-3.6509399-0.5456314l-4.0881119,2.2110214L39.391098,65.2397537z M32.7913055,97.7722855c-5.4394722-0.0232697-9.8566952-4.4747238-9.8247452-9.9356232 c0.0232372-5.4394302,4.4810638-9.8416443,9.9205742-9.8182755c5.4609489,0.0319824,9.856823,4.4747772,9.8334961,9.914238 C42.6886787,93.3935318,38.2458458,97.7892456,32.7913055,97.7722855z"/><path fill="#00c5ea" d="M31.0614815,112.7298813l-1.7215519-5.9293213l-1.9700127-0.5877228 c-1.4133778-0.4217682-2.7592373-0.9901123-3.9989624-1.6875687l-1.8065395-1.0158463l-5.4682827,2.9364166 l-2.3214941-2.3502197l2.9971914-5.4134369l-0.9935751-1.8198318c-0.6973343-1.276825-1.2584305-2.6394806-1.6692972-4.0511856 l-0.5708761-1.9666824l-5.9140525-1.7858276l0.0113792-3.3131256l5.9670482-1.7356567l0.5754852-1.9968033 c0.3775759-1.3092499,0.9321327-2.6115189,1.6994038-3.9795151l1.0184469-1.8181992l-2.9651928-5.4351196l2.3512783-2.3366089 l5.4107399,3.0079803l1.8225555-0.9940414c1.2854156-0.7016373,2.6061802-1.2459564,4.0408173-1.6646042l1.9498997-0.5706863 l1.814909-5.9238243l3.310442,0.0277748l1.6366692,5.6928864l8.1185036,3.4014511l5.2156639-2.8215561l2.3270454,2.3604584 l-3.0033188,5.4210663l1.0034447,1.8227539c0.4997444,0.9107895,0.9274864,1.868927,1.2709885,2.8475952 c0.1334724,0.4157181,0.2559319,0.7903824,0.369236,1.1872406l0.5665131,1.9842834l5.9353256,1.7792587l-0.0183105,3.3162155 l-4.1680183,1.2103882l-1.8667374,0.7868576l-0.5150757,1.746788c-0.0933647,0.3278351-0.202404,0.662178-0.3196144,0.9820862 c-0.3705101,1.0219421-0.8285828,2.0350952-1.3607445,3.0099487l-0.9791603,1.7972183l2.9328156,5.4212265l-2.3603897,2.3485031 l-5.4328117-3.0059357l-1.8204231,0.9955292c-1.2783241,0.6994476-2.622654,1.2479401-3.9965286,1.6296539l-2.0046692,0.5570221 l-1.7837524,5.9519501L31.0614815,112.7298813z M30.4588909,74.4569321 c-6.4969234,1.1508408-11.2335739,6.7714386-11.262434,13.3632431 c-0.0222569,3.6422348,1.3814125,7.0804977,3.9501095,9.6757889c2.5685368,2.5943756,5.9865456,4.0314941,9.6275272,4.0465164 c0.823143,0.0028305,1.6444778-0.0678711,2.4439011-0.2094803c6.4932976-1.1501999,11.2345848-6.7762909,11.273037-13.3772736 c0.0312424-7.5176926-6.0624733-13.6634521-13.5824776-13.707428 C32.0834389,74.2448883,31.2601299,74.3150024,30.4588909,74.4569321z"/></g><g><path fill="#fff" d="M78.7529526,45.1430664v17.7870598c0,0.907486-0.7425232,1.6500053-1.6500092,1.6500053H58.1856346 c-0.9075356,0-1.6500053-0.7425194-1.6500053-1.6500053V45.1430664c0-0.9074821,0.7424698-1.6500053,1.6500053-1.6500053 h18.9173088C78.0104294,43.4930611,78.7529526,44.2355843,78.7529526,45.1430664z"/><path fill="#f3fcff" d="M78.7529526,45.1430664v17.7870598c0,0.907486-0.7425232,1.6500053-1.6500092,1.6500053H58.1856346 c-0.9075356,0-1.6500053-0.7425194-1.6500053-1.6500053V45.1430664c0-0.9074821,0.7424698-1.6500053,1.6500053-1.6500053 h18.9173088C78.0104294,43.4930611,78.7529526,44.2355843,78.7529526,45.1430664z"/><path fill="#76819f" d="M78.7529526,60.2653847v2.6647415c0,0.907486-0.7425232,1.6500053-1.6500092,1.6500053H58.1856346 c-0.9075356,0-1.6500053-0.7425194-1.6500053-1.6500053v-1.6500053l7.8787689-9.0007591l5.9235153,7.0537643l3.745491-3.7372856 L78.7529526,60.2653847z"/><path fill="#ffe93e" d="M62.5368233,49.937851c0,1.2114983-0.9691315,2.1806297-2.1806259,2.1806297 c-1.1980247,0-2.1671562-0.9691315-2.1671562-2.1806297c0-1.1980209,0.9691315-2.1671524,2.1671562-2.1671524 C61.5676918,47.7706985,62.5368233,48.73983,62.5368233,49.937851z"/><path fill="#384b7d" d="M119.7209396,47.603199c0.7693863-0.7945747,0.9224854-2.0174446,0.3740311-2.9704475 l-1.3565903-2.3963165c0.3284912-0.6540718,0.6298523-1.3759689,0.899231-2.1545563 c0.0629807-0.1904068,0.1259689-0.3803291,0.183136-0.5741272l2.639534-0.8255806 c1.0629883-0.3338165,1.7693787-1.3081398,1.7567825-2.4249039l-0.0397263-2.8367233 c-0.0135651-1.1027145-0.7664719-2.0804272-1.8323669-2.3774242l-2.668602-0.7417622 c-0.0736465-0.228199-0.1472855-0.4491291-0.2248077-0.6715126c-0.2693787-0.7165699-0.5852661-1.4035854-0.9408875-2.0465107 l1.2819748-2.4375c0.5213165-0.9806213,0.3333359-2.1690903-0.4680252-2.9597874l-2.0358505-1.9859505 c-0.7887573-0.7640495-2.0155029-0.9205418-2.9815903-0.3817825l-2.4244156,1.3808136l-2.7112427-1.0663757 l-0.8226776-2.667635c-0.3178253-1.0402126-1.3003845-1.7601748-2.3972855-1.7601748c-0.0096893,0-0.0193787,0-0.0280991,0 l-1.0755844,0.013566v-3.6056204c0-4.7490306-3.8633728-8.6128874-8.6124039-8.6128874h-57.183136 c-4.7490311,0-8.6133728,3.8638568-8.6133728,8.6128874v45.9559708 c-1.4112148,0.1480141-2.637476,1.1292381-3.0542622,2.5076904l-1.2829456,4.1976738 c-1.5416679,0.4680252-2.9825592,1.0615311-4.388567,1.8076553l-3.8120155-2.1201553 c-1.3846893-0.7698631-3.1346893-0.5276146-4.2567825,0.5886612l-3.0920544,3.0721893 c-1.1182175,1.1119232-1.3720932,2.8556213-0.6182175,4.2403107l2.0872097,3.8265533 c-0.8120155,1.4844971-1.4244242,2.9219971-1.8662786,4.379364L5.9438105,81.793602 c-1.5096898,0.4394379-2.5668604,1.8435135-2.5726743,3.4157028l-0.014535,4.3541641 c-0.0058141,1.566864,1.0377908,2.9772263,2.5377908,3.4297485l4.194767,1.2669601 c0.4631786,1.5295486,1.0726748,3.0096893,1.8158922,4.4064865l-2.1153107,3.8183136 c-0.7606583,1.3759689-0.5213175,3.1182175,0.583334,4.2378922l3.0542631,3.091568 c1.1036825,1.1182175,2.8420544,1.3817825,4.2277126,0.6366272l3.8633728-2.0741272 c1.3711243,0.7495193,2.8391476,1.3686981,4.3720932,1.8449631l1.2189922,4.1981583 c0.4305344,1.4807434,1.7929993,2.5232544,3.3294563,2.5666809v5.900856c0,3.3080826,1.8820267,6.1812668,4.6300278,7.6201553 H24.2732677c-0.2742252,0-0.4961243,0.2218933-0.4961243,0.4961243S23.9990425,131.5,24.2732677,131.5h87.4631729 c0.274231,0,0.4961243-0.2218933,0.4961243-0.4961243s-0.2218933-0.4961243-0.4961243-0.4961243h-3.4787979 c0.3493805-0.4398041,0.5669785-0.9886169,0.5669785-1.5925446c0.0003052-5.1957245,0.0051804,0.8211212,0.0019379-55.8982468 c0-0.0625-0.0116272-0.1240311-0.0348816-0.1821747c-5.4046021-13.7424698-3.5405502-9.0026741-3.9438019-10.028038v-8.2820969 l1.662796-0.0231972c1.0998001-0.0121117,2.0736389-0.7655029,2.3672485-1.8318787l0.7412796-2.665699 c0.9408875-0.3008728,1.8498001-0.6899223,2.7083282-1.1593971l2.4486465,1.2829437 c0.9796524,0.5208321,2.2005768,0.3280029,2.9602661-0.4704437L119.7209396,47.603199z M104.8478775,29.4200573 c3.2088776,0.031311,5.8395157,2.6253033,5.8943863,5.8488369c0.0455399,3.2732582-2.5804291,5.9811058-5.8449631,6.0358543 c-0.0171432-0.0001221-0.0324631-0.0015755-0.0494232-0.0016975V29.4200573z M28.0629959,114.1429291l-1.2945728-4.4559174 c-0.0474873-0.1618195-0.1734505-0.2887573-0.3343029-0.3367233c-1.6463165-0.4917603-3.2170544-1.1545486-4.6686039-1.9709244 c-0.1526833-0.0851517-0.3327484-0.0826416-0.4777126-0.004364l-4.1017456,2.202034 c-0.9990311,0.5368195-2.2548447,0.3483505-3.0532942-0.4597855l-3.0542631-3.091568 c-0.7965117-0.8086243-0.9699612-2.066864-0.4205427-3.0600815l2.2461243-4.0552292 c0.0823641-0.1487427,0.0823641-0.3289719,0.0009689-0.4782028c-0.8100777-1.4825516-1.4631786-3.0668564-1.9399233-4.7083282 c-0.0474806-0.1613388-0.1724806-0.287796-0.333333-0.3362427L6.1812139,92.043602 c-1.0833335-0.327034-1.8362408-1.3454437-1.8323646-2.476738l0.014535-4.3541718 c0.0038757-1.13517,0.7684107-2.1492233,1.8575583-2.466568l4.471899-1.3003845 c0.1637592-0.0474854,0.2906981-0.1753922,0.3381786-0.3386688c0.4476738-1.5528107,1.0988369-3.0813904,1.9893408-4.6734467 c0.083333-0.1487427,0.0843019-0.3299408,0.0029068-0.4796524l-2.2170544-4.0658875 c-0.5455427-1-0.3624029-2.2592087,0.4457369-3.0620193l3.0920544-3.0721893 c0.8110466-0.8047485,2.0746126-0.9806213,3.0746069-0.4249039l4.0494232,2.2519379 c0.1482563,0.0818787,0.3294582,0.0828476,0.4786835,0.0019379c1.4970932-0.8154068,3.0310078-1.44767,4.6908913-1.9326553 c0.1598835-0.0469971,0.2858524-0.1710281,0.334301-0.3304214l1.3624039-4.4559135 c0.3284893-1.0852737,1.3817825-1.8275185,2.4825573-1.8328514c0.3764763,0.0021362,4.4565392,0.0252876,4.3546524,0.0247116 c1.1366272,0.0062981,2.1492233,0.7737389,2.4631767,1.8657951l1.2800407,4.4554253 c0.0416641,0.1443787,0.1463165,0.2625961,0.2848816,0.3207397l4.7887611,2.0053253 c0.139534,0.0571747,0.2945747,0.0499039,0.4282951-0.0213165l4.0881767-2.2107544 c1-0.5407028,2.2616272-0.3551407,3.0610466,0.4573593l3.0600777,3.1032028 c0.7965126,0.808136,0.9689941,2.0658875,0.4186058,3.0586243l-2.2461243,4.0566864 c-0.0823631,0.148735-0.0823631,0.3299408-0.0009689,0.4791641c0.5891457,1.0721893,1.0910835,2.1976776,1.4883728,3.3347855 c0.1472855,0.4505844,0.2955399,0.9016495,0.4321709,1.3788757c0.0465088,0.1623077,0.1724777,0.2902145,0.334301,0.3386612 l4.459301,1.3372116c1.0881805,0.3265533,1.8439941,1.3473816,1.8372116,2.4830399l-0.0242271,4.3575592 c-0.0067825,1.1327515-0.7703476,2.1448669-1.8585243,2.4612427l-4.5310097,1.3221893 c-0.1375961,0.0581436-0.2422485,0.1758728-0.2829437,0.3197708c-0.1153107,0.4011612-0.2480621,0.8095932-0.3905067,1.2010651 c-0.4253845,1.1724777-0.9515495,2.3367233-1.5629845,3.4607544c-0.0804253,0.1472855-0.0804253,0.3255844,0,0.4728699 l2.206398,4.0780029c0.5406952,0.9980621,0.3556175,2.2538757-0.4496155,3.0542603l-3.1007729,3.0838165 c-0.8081398,0.803299-2.0717049,0.9782028-3.0649223,0.4278107l-4.0755806-2.2538757 c-0.1482582-0.0818787-0.3294601-0.0823593-0.4777145-0.0014496c-1.5019379,0.8202515-3.0804253,1.4636612-4.6918602,1.9118195 c-0.1647301,0.0460281-0.2936058,0.1724854-0.3420563,0.3357544l-1.3381767,4.4588242 c-0.3255806,1.0833282-1.3391457,1.837204-2.4699631,1.837204c-0.0048447,0-0.0087204,0-0.0135651,0l-0.2340088-0.0013275 c-0.0069656-0.0003052-0.0128403-0.0039978-0.0198669-0.0039978c-0.0066605,0-0.0121727,0.0035095-0.0187721,0.0037537 l-3.6611576-0.0207138c-0.0041771-0.0001221-0.0076904-0.0024185-0.0119305-0.0024185 c-0.0039959,0-0.007267,0.0021744-0.0112648,0.0022964l-0.4005566-0.0022964 C29.3905163,115.9951553,28.3788872,115.2306213,28.0629959,114.1429291z M100.1647415,65.6735077l-2.8158951,7.1632156 c-0.0051422,0.013382-0.0013275,0.0278625-0.0053253,0.0415497c-0.0135651,0.0454788-0.0266495,0.0913239-0.0266495,0.1386871 c-0.0000534,3.1752167,0.0003586,55.4243851-0.0009689,53.618454c-0.345932,0.1030807-0.7043381,0.1712723-1.0804291,0.1712723 h-57.183136c-2.1666679,0-3.9292641-1.7625961-3.9292641-3.9292603v-5.8779144 c1.4706268-0.0968323,2.763504-1.0994415,3.1908913-2.5256729l1.2606583-4.1986465 c1.5067825-0.4389496,2.9835281-1.0406952,4.3963203-1.7916641l3.8381767,2.1225739 c1.3798447,0.7640533,3.1259689,0.5203552,4.2451553-0.5925369l3.1007767-3.0838165 c1.1153069-1.1085281,1.3711243-2.8478699,0.6220932-4.2301331l-2.0784912-3.8425446 c0.5804291-1.0935059,1.0833359-2.2218933,1.4951553-3.3575592c0.1191864-0.3275146,0.2325592-0.6671448,0.3352737-1.0058136 l4.2141457-1.2238312c1.5067825-0.4379883,2.5649223-1.8396378,2.5736427-3.4079514l0.0242271-4.3575516 c0.0087204-1.5726776-1.0377922-2.9869232-2.5445747-3.4394379l-4.2015495-1.259697 c-0.1182175-0.3948593-0.2422485-0.7751923-0.3691864-1.1623001c-0.3885651-1.1128922-0.8682175-2.2059174-1.4273262-3.2529068 l2.1143417-3.8192825c0.7616272-1.375,0.5232544-3.1167679-0.5804291-4.2359543l-3.0591049-3.1031952 c-1.110466-1.1230621-2.8498077-1.3856583-4.2412796-0.6337204l-3.8788757,2.0978699l-4.3507767-1.8217087 l-1.2141457-4.2267456c-0.4350777-1.5125961-1.8372116-2.5750961-3.4108543-2.5838165l-0.0542641-0.0003014v-45.960453 c0-2.166667,1.7625961-3.9292641,3.9292641-3.9292641h9.7412796c0.2470932,2.2131786,2.125,3.9394379,4.3982544,3.9394379 h32.0591125c2.2732544,0,4.1511612-1.7262592,4.3982544-3.9394379h6.586235 c2.1666718,0,3.9292679,1.7625971,3.9292679,3.9292641V65.6735077z M107.8372116,123.3880844h-9.5358429v-2.2495193h4.7577515 v-0.9922485h-4.7577515v-2.2495117h9.5358429V123.3880844z M102.5562134,116.904068h-4.2470932V73.514534h4.2470932V116.904068 z M98.3081512,128.9152069c0-0.1854248,0-4.6737061,0-4.5329361h9.5242233v4.5329361 c0,0.8735504-0.7102661,1.5843048-1.5842972,1.5843048h-6.3556213 C99.018425,130.4995117,98.3081512,129.7887573,98.3081512,128.9152069z M107.8343124,116.904068h-4.2856064 l0.0188904-43.389534h4.266716V116.904068z M107.6007843,72.5222855h-9.060257l2.5370636-6.453186h3.9798965 C105.0967941,66.1688385,107.7706146,72.9531937,107.6007843,72.5222855z M31.4312134,122.8875961v-5.8886871 l2.6996117,0.0152588v5.8632584c0,2.7136612,2.2073669,4.9215088,4.9215126,4.9215088h57.183136 c0.3714294,0,0.7297745-0.0540848,1.0804291-0.1347504v1.2510223c0,0.5210266,0.1580048,1.0047913,0.4250259,1.410675 c-0.4975204,0.1019897-0.9993973,0.1721802-1.505455,0.1721802h-57.183136 C34.8498192,130.4980621,31.4312134,127.0838165,31.4312134,122.8875961z M103.5319901,59.459301 c-0.0097504-0.0247688-0.0351868-0.0341568-0.0487518-0.0557175c-0.0325241-0.0587425-0.0746155-0.1075554-0.1269989-0.1451645 c-0.0065384-0.0040588-0.0105362-0.0101738-0.0172043-0.0139313c-0.1037979-0.0672226-0.2323151-0.0979881-0.3651886-0.0778198 c-0.1576385,0.0251312-0.2821579,0.1372337-0.3533173,0.2777977c-0.0029068,0.0063591-0.0103531,0.0082359-0.0129623,0.0148354 l-0.011261,0.0286484c-0.0036926,0.0092049-0.0075073,0.0178032-0.0106583,0.0271912l-1.4286575,3.6342049V12.1027136 c0-2.7136631-2.2073669-4.9215121-4.9215164-4.9215121h-7.0552292c-0.2742233,0-0.4961243,0.2218995-0.4961243,0.4961243 c0,1.8987403-1.5397263,3.4433141-3.433136,3.4433141H53.1918716c-1.8934097,0-3.4331398-1.5445738-3.4331398-3.4433141 c0-0.2742248-0.2218971-0.4961243-0.4961243-0.4961243H39.0523376c-2.7141457,0-4.9215126,2.207849-4.9215126,4.9215121 v45.9548187l-2.6996117-0.0153198V12.1128874c0-4.2020345,3.4186058-7.6206393,7.6211243-7.6206393h57.183136 c4.2015533,0,7.6201553,3.4186049,7.6201553,7.6206393v48.169693L103.5319901,59.459301z M115.2393494,49.25 l-2.6889572-1.4089165c-0.1501846-0.0780029-0.3284836-0.0755806-0.476738,0.0087242 c-0.9418564,0.5373039-1.9515457,0.9694748-3.0019379,1.2848816c-0.1637573,0.0489349-0.2897263,0.1782951-0.3352737,0.3425407 l-0.8149185,2.9273224c-0.1773224,0.6434135-0.7616272,1.0973854-1.4234467,1.1046524l-1.6501999,0.0230141V42.2954216 c0.0141754,0,0.0263443,0.0015755,0.0407028,0.0015755c0.0058136,0,0.0116272,0,0.0174408,0 c3.8178253-0.0639534,6.8817825-3.2228699,6.8284836-7.0431213c-0.0636444-3.7684708-3.1416473-6.7985706-6.8866272-6.8263683 V16.7108765l1.0872116-0.0136871c0.6705399,0.0179272,1.2713165,0.4273262,1.4651184,1.0591087l0.8934097,2.8972874 c0.0445709,0.1438961,0.1521301,0.2601738,0.2926331,0.3154068l3.1550446,1.2403107 c0.1385651,0.0542622,0.2965088,0.0431194,0.4263535-0.0305233l2.6259689-1.4961243 c0.5852737-0.326067,1.3275223-0.2330437,1.8032913,0.229166l2.0329514,1.9825592 c0.4844894,0.4781971,0.5998001,1.1957359,0.2858505,1.7873058l-1.4089127,2.6792641 c-0.0794601,0.1511612-0.0755844,0.3318787,0.0096893,0.479166c0.3827515,0.6637592,0.7218933,1.3837204,1.0019379,2.1274223 c0.0988388,0.2829456,0.1957321,0.5750961,0.2926331,0.8871117c0.0503845,0.1613388,0.1782913,0.285368,0.3410873,0.3309116 l2.9273224,0.8134689c0.6424408,0.1792641,1.0978699,0.7688942,1.1056213,1.4341087l0.0397263,2.8362389 c0.0077515,0.6753883-0.4195709,1.2645378-1.0610428,1.4660873L119.3188095,38.625 c-0.1850739,0.0363388-0.3381805,0.1773262-0.3856583,0.3657951c-0.0658875,0.2655029-0.1521301,0.521801-0.235466,0.7722855 c-0.2848816,0.8231583-0.6085281,1.5809135-0.9622116,2.2533913c-0.0784836,0.1492271-0.0755768,0.3284912,0.0067902,0.4752922 l1.490303,2.6327515c0.331398,0.5746117,0.2393417,1.3100777-0.2248001,1.7887611l-1.9874039,2.0562019 C116.5629959,49.4491272,115.8314056,49.5649223,115.2393494,49.25z"/><path fill="#384b7d" d="M5.0901284,130.5077515H4.1395469c-0.2742248,0-0.496124,0.2218933-0.496124,0.4961243 S3.8653221,131.5,4.1395469,131.5h0.9505816c0.2742248,0,0.4961238-0.2218933,0.4961238-0.4961243 S5.3643532,130.5077515,5.0901284,130.5077515z"/><path fill="#384b7d" d="M19.312027,130.5077515h-9.2606583c-0.2742252,0-0.4961243,0.2218933-0.4961243,0.4961243 S9.7771435,131.5,10.0513687,131.5h9.2606583c0.2742252,0,0.4961243-0.2218933,0.4961243-0.4961243 S19.5862522,130.5077515,19.312027,130.5077515z"/><path fill="#384b7d" d="M124.5736542,130.5077515h-7.8759689c-0.2742233,0-0.4961243,0.2218933-0.4961243,0.4961243 S116.4234619,131.5,116.6976852,131.5h7.8759689c0.2742233,0,0.4961243-0.2218933,0.4961243-0.4961243 S124.8478775,130.5077515,124.5736542,130.5077515z"/><path fill="#384b7d" d="M131.1472931,130.5077515h-1.6123962c-0.274231,0-0.4961243,0.2218933-0.4961243,0.4961243 S129.2606659,131.5,129.5348969,131.5h1.6123962c0.274231,0,0.4961243-0.2218933,0.4961243-0.4961243 S131.421524,130.5077515,131.1472931,130.5077515z"/><path fill="#384b7d" d="M73.5290833,7.1860466H61.756794c-0.2742233,0-0.4961243,0.221899-0.4961243,0.4961238 s0.2219009,0.4961238,0.4961243,0.4961238h11.7722893c0.2742233,0,0.4961243-0.221899,0.4961243-0.4961238 S73.8033066,7.1860466,73.5290833,7.1860466z"/><path fill="#384b7d" d="M77.0639648,7.1860466h-0.9912796c-0.2742233,0-0.4961243,0.221899-0.4961243,0.4961238 s0.2219009,0.4961238,0.4961243,0.4961238h0.9912796c0.2742233,0,0.4961243-0.221899,0.4961243-0.4961238 S77.3381882,7.1860466,77.0639648,7.1860466z"/><path fill="#384b7d" d="M62.8885765,36.2403107V20.4781971c0-1.7931194-1.4583321-3.2519379-3.2519379-3.2519379H43.8740425 c-1.7936058,0-3.2519379,1.4588184-3.2519379,3.2519379v15.7621136c0,1.7931213,1.4583321,3.2519379,3.2519379,3.2519379 h15.7625961C61.4302444,39.4922485,62.8885765,38.033432,62.8885765,36.2403107z M41.6143532,36.2403107V20.4781971 c0-1.2461243,1.0135651-2.2596893,2.2596893-2.2596893h15.7625961c1.2461243,0,2.2596931,1.0135651,2.2596931,2.2596893 v15.7621136c0,1.2461243-1.0135689,2.2596893-2.2596931,2.2596893H43.8740425 C42.6279182,38.5,41.6143532,37.4864349,41.6143532,36.2403107z"/><path fill="#384b7d" d="M44.0949745,23.2737408h15.3207359c0.2742233,0,0.4961243-0.221899,0.4961243-0.4961243 s-0.2219009-0.4961243-0.4961243-0.4961243H44.0949745c-0.2742271,0-0.4961243,0.221899-0.4961243,0.4961243 S43.8207474,23.2737408,44.0949745,23.2737408z"/><path fill="#384b7d" d="M59.9118347,26.4985466c0-0.2742252-0.2219009-0.4961243-0.4961243-0.4961243H44.0949745 c-0.2742271,0-0.4961243,0.221899-0.4961243,0.4961243s0.2218971,0.4961243,0.4961243,0.4961243h15.3207359 C59.6899338,26.9946709,59.9118347,26.7727718,59.9118347,26.4985466z"/><path fill="#384b7d" d="M56.2325706,29.7233524h-3.0184097c-0.2742271,0-0.4961243,0.221899-0.4961243,0.4961243 s0.2218971,0.4961243,0.4961243,0.4961243h3.0184097c0.2742233,0,0.4961243-0.221899,0.4961243-0.4961243 S56.506794,29.7233524,56.2325706,29.7233524z"/><path fill="#384b7d" d="M50.7335396,29.7233524h-6.6385651c-0.2742271,0-0.4961243,0.221899-0.4961243,0.4961243 s0.2218971,0.4961243,0.4961243,0.4961243h6.6385651c0.2742233,0,0.4961243-0.221899,0.4961243-0.4961243 S51.0077629,29.7233524,50.7335396,29.7233524z"/><path fill="#384b7d" d="M50.2790833,33.4442825h-6.1841087c-0.2742271,0-0.4961243,0.2219009-0.4961243,0.4961243 s0.2218971,0.4961243,0.4961243,0.4961243h6.1841087c0.2742233,0,0.4961243-0.2219009,0.4961243-0.4961243 S50.5533066,33.4442825,50.2790833,33.4442825z"/><path fill="#384b7d" d="M91.4118347,17.2262592H75.6502075c-1.7936096,0-3.2519379,1.4588184-3.2519379,3.2519379v15.7621136 c0,1.7931213,1.4583282,3.2519379,3.2519379,3.2519379h15.7616272c1.793602,0,3.2519379-1.4588165,3.2519379-3.2519379 V20.4781971C94.6637726,18.6850777,93.2054367,17.2262592,91.4118347,17.2262592z M93.671524,36.2403107 c0,1.2461243-1.0135651,2.2596893-2.2596893,2.2596893H75.6502075c-1.2461243,0-2.2596893-1.0135651-2.2596893-2.2596893 V20.4781971c0-1.2461243,1.0135651-2.2596893,2.2596893-2.2596893h15.7616272 c1.2461243,0,2.2596893,1.0135651,2.2596893,2.2596893V36.2403107z"/><path fill="#384b7d" d="M87.3565979,21.1560078c-0.2393341-0.1298447-0.5416641-0.0377903-0.6705399,0.2054272 l-7.1860428,13.5305214c-0.1288757,0.2417641-0.0368271,0.5421524,0.2054214,0.6705437 c0.235672,0.1271362,0.539978,0.0408058,0.6705475-0.2054253l7.1860428-13.5305252 C87.6909027,21.5847874,87.5988464,21.284399,87.3565979,21.1560078z"/><path fill="#384b7d" d="M79.0872192,24.7252903c-0.1937943-0.194767-0.5077515-0.1937981-0.7015457-0.0009689 l-3.2868271,3.2800388c-0.1941071,0.194109-0.1932907,0.5087376,0,0.7020359l3.2868271,3.2873058 c0.1937943,0.1937943,0.5077438,0.1938019,0.7015457,0c0.1938019-0.1937981,0.1938019-0.5077515,0-0.7015514 l-2.9360428-2.9360466l2.9360428-2.9292622C79.2810211,25.2330418,79.2810211,24.9190884,79.0872192,24.7252903z"/><path fill="#384b7d" d="M88.6763687,24.7243214c-0.1938019-0.1928291-0.5077515-0.1937981-0.7015533,0.0009689 c-0.1937943,0.1937981-0.1937943,0.5077515,0,0.7015514l2.9360504,2.9292622l-2.9360504,2.9360466 c-0.1937943,0.1938-0.1937943,0.5077534,0,0.7015514c0.1937943,0.1937943,0.5077515,0.1938019,0.7015533,0l3.2868195-3.2873058 c0.1933441-0.1933403,0.1940765-0.5079651,0-0.7020359L88.6763687,24.7243214z"/><path fill="#384b7d" d="M43.2170601,87.9345932c0.0244713-5.7609558-4.6790886-10.3795471-10.3275146-10.4123077 c-0.0155029,0-0.0300369,0-0.0445709,0c-5.7005825,0-10.3507767,4.6167679-10.3750019,10.3115311 c-0.0155029,2.7722855,1.0513573,5.3861465,3.0058155,7.3594971c1.9515495,1.970932,4.5484486,3.0634689,7.3139534,3.0750961 C38.457386,98.2684097,43.1838112,93.6914444,43.2170601,87.9345932z M42.2248116,87.9297485 c-0.0254288,4.3649445-3.0498962,8.0225906-7.101738,9.0492935V78.8086853 C39.2113113,79.8389053,42.2437744,83.5402145,42.2248116,87.9297485z M32.8847008,78.514534 c0.4236336,0.0024872,0.8374519,0.0428772,1.2461243,0.0998688V97.173996 c-0.9635353,0.1354141-1.6700058,0.1412964-2.6996117-0.0133286V78.6324463 c0.4620876-0.0701904,0.9314423-0.1179123,1.4127922-0.1179123 C32.8575706,78.514534,32.8711357,78.514534,32.8847008,78.514534z M23.4622211,87.8386612 c0.018713-4.3181915,2.9821339-7.9401016,6.9767437-9.0006027V96.956337 C26.3659611,95.8811493,23.437067,92.1794891,23.4622211,87.8386612z"/><path fill="#384b7d" d="M77.1027222,42.9970932H58.186058c-1.1831398,0-2.1463165,0.9626923-2.1463165,2.1458321 c0,4.6501732,0,14.4770737,0,17.7873077c0,1.1831398,0.9631767,2.1458321,2.1463165,2.1458321h18.9166641 c1.1831436,0,2.1463242-0.9626923,2.1463242-2.1458321c0-4.3476563,0-13.3514671,0-17.7873077 C79.2490463,43.9597855,78.2858658,42.9970932,77.1027222,42.9970932z M58.186058,43.9893417h18.9166641 c0.6366272,0,1.1540756,0.5174408,1.1540756,1.1535835v13.9249039l-3.8226776-3.8226738 c-0.1937943-0.1937981-0.5077515-0.1933136-0.7015533-0.0004845l-3.3623962,3.3556213l-5.5755844-6.6400223 c-0.0930252-0.1104622-0.2296524-0.1753845-0.375-0.1768379c-0.0009689,0-0.0029068,0-0.0048447,0 c-0.1434097,0-0.279068,0.0615311-0.3730621,0.1695709l-7.0096893,8.0075722V45.1429253 C57.0319901,44.5067825,57.5494308,43.9893417,58.186058,43.9893417z M78.2567978,62.930233 c0,0.6361427-0.5174484,1.1535835-1.1540756,1.1535835H58.186058c-0.6366272,0-1.154068-0.5174408-1.154068-1.1535835 v-1.463665l7.375-8.4249001c0.0835876,0.0995369,5.7609634,6.8603745,5.5517197,6.6111908l1.4259949,1.6843491 c0.1807251,0.2117386,0.4929733,0.2324905,0.6996078,0.0581398c0.2093048-0.1773262,0.2344971-0.4903107,0.0581436-0.6996117 l-1.1296692-1.334301l3.0705566-3.0644379l4.1734543,4.1739349V62.930233z"/><path fill="#384b7d" d="M60.3566017,52.6148262c1.4757729,0,2.6763573-1.2010651,2.6763573-2.6768417 c0-1.4685059-1.2005844-2.6632767-2.6763573-2.6632767c-1.4689941,0-2.6637611,1.1947708-2.6637611,2.6632767 C57.6928406,51.4137611,58.8876076,52.6148262,60.3566017,52.6148262z M60.3566017,48.2669563 c0.9282951,0,1.6841087,0.7495155,1.6841087,1.6710281c0,0.944767-0.7393417,1.6845932-1.6841087,1.6845932 c-0.9215126,0-1.6715126-0.7558136-1.6715126-1.6845932C58.6850891,49.0164719,59.4350891,48.2669563,60.3566017,48.2669563z"/></g></g></svg>