<svg xmlns="http://www.w3.org/2000/svg"  viewBox="0 0 520 520" width="64px" height="64px"><rect width="39.994" height="80.002" x="146.928" y="331.024" fill="#ff7d3c" transform="rotate(-45.001 166.922 371.029)"/><polygon fill="#ff7d3c" points="417.95,176.57 389.66,204.85 333.1,148.29 361.38,120"/><polygon fill="#ffb995" points="389.66,204.85 209.35,385.17 152.78,328.6 333.1,148.29"/><path fill="#74829c" d="M446.23,91.72c7.81,7.81,11.71,18.04,11.71,28.28s-3.9,20.47-11.71,28.28l-28.28,28.29L361.38,120 l28.28-28.28C405.28,76.09,430.61,76.09,446.23,91.72z"/><polygon fill="#fde09c" points="181.07,413.45 145.71,448.8 75,462.95 89.14,392.24 124.5,356.88"/><path fill="#c4eaff" d="M70,265c8.28,0,15,6.72,15,15s-6.72,15-15,15s-15-6.72-15-15S61.72,265,70,265z"/><path fill="#c4eaff" d="M307.5,40c12.43,0,22.5,10.07,22.5,22.5S319.93,85,307.5,85S285,74.93,285,62.5S295.07,40,307.5,40 z"/><polygon fill="#64e1db" points="315,130 137.17,305.72 191.11,194.63 128.18,194.63 182.12,75 254.05,75 227.72,130"/><circle cx="462.5" cy="192.5" r="7.5"/><circle cx="362.5" cy="72.5" r="7.5"/><circle cx="262.5" cy="392.5" r="7.5"/><circle cx="127.5" cy="72.5" r="7.5"/><circle cx="82.5" cy="342.5" r="7.5"/><circle cx="67.5" cy="172.5" r="7.5"/><path d="M209.35,390.17c-1.28,0-2.559-0.488-3.536-1.465c-1.953-1.952-1.953-5.118,0-7.07l180.311-180.32 c1.951-1.952,5.119-1.952,7.07,0c1.953,1.953,1.953,5.119,0,7.071l-180.31,180.319C211.91,389.682,210.63,390.17,209.35,390.17z"/><path d="M152.78,333.6c-1.28,0-2.559-0.488-3.536-1.465c-1.953-1.952-1.953-5.118,0-7.07l180.32-180.31l56.561-56.57 c8.497-8.503,19.799-13.187,31.82-13.187s23.322,4.684,31.822,13.188c8.494,8.494,13.173,19.793,13.173,31.814 s-4.679,23.32-13.175,31.815l-28.279,28.289c-1.953,1.954-5.118,1.954-7.071,0.001s-1.953-5.118-0.001-7.071l28.28-28.29 c6.607-6.608,10.246-15.396,10.246-24.745s-3.639-18.137-10.245-24.744c-6.611-6.616-15.4-10.258-24.75-10.258 s-18.139,3.643-24.748,10.257l-236.882,236.88C155.339,333.111,154.059,333.6,152.78,333.6z"/><path d="M75,467.95c-1.313,0-2.588-0.518-3.535-1.464c-1.183-1.183-1.696-2.877-1.368-4.517l14.14-70.71 c0.193-0.968,0.669-1.857,1.367-2.555l35.36-35.36c1.953-1.953,5.118-1.953,7.071,0c1.953,1.952,1.953,5.118,0,7.07l-34.29,34.29 l-12.373,61.87l61.872-12.381l34.29-34.28c1.954-1.951,5.119-1.952,7.071,0.001s1.952,5.119-0.001,7.071l-35.36,35.35 c-0.698,0.697-1.586,1.173-2.554,1.366l-70.71,14.15C75.655,467.918,75.326,467.95,75,467.95z"/><path d="M389.66,209.85c-1.279,0-2.56-0.488-3.535-1.464l-56.561-56.56c-0.03-0.03-0.059-0.06-0.088-0.089 c-1.87-1.966-1.841-5.075,0.078-6.993l28.29-28.28c1.953-1.952,5.119-1.952,7.07,0l56.57,56.57 c0.938,0.938,1.465,2.21,1.465,3.536s-0.527,2.598-1.465,3.536l-28.29,28.28C392.219,209.362,390.939,209.85,389.66,209.85z M340.161,148.281l49.5,49.499l21.218-21.21l-49.5-49.499L340.161,148.281z"/><path d="M181.07,418.45c-1.326,0-2.598-0.526-3.536-1.465l-56.57-56.57c-1.953-1.952-1.953-5.118,0-7.07l28.28-28.28 c0.938-0.938,2.209-1.465,3.536-1.465s2.598,0.526,3.536,1.465l56.57,56.57c0.938,0.938,1.464,2.209,1.464,3.535 s-0.527,2.598-1.464,3.535l-28.28,28.28C183.667,417.924,182.396,418.45,181.07,418.45z M131.571,356.88l49.499,49.499 l21.209-21.209l-49.499-49.499L131.571,356.88z"/><path d="M315,430c-2.762,0-5-2.238-5-5v-50c0-2.762,2.238-5,5-5s5,2.238,5,5v50C320,427.762,317.762,430,315,430z"/><path d="M365,430c-2.762,0-5-2.238-5-5v-50c0-2.762,2.238-5,5-5s5,2.238,5,5v50C370,427.762,367.762,430,365,430z"/><path d="M465,430h-50c-2.762,0-5-2.238-5-5v-50c0-2.762,2.238-5,5-5h50c2.762,0,5,2.238,5,5v50C470,427.762,467.762,430,465,430z M420,420h40v-40h-40V420z"/><path d="M365,380h-50c-2.762,0-5-2.238-5-5v-50c0-2.762,2.238-5,5-5h50c2.762,0,5,2.238,5,5s-2.238,5-5,5h-45v40h45 c2.762,0,5,2.238,5,5S367.762,380,365,380z"/><path d="M415,380h-50c-2.762,0-5-2.238-5-5v-50c0-2.762,2.238-5,5-5s5,2.238,5,5v45h40v-45c0-2.762,2.238-5,5-5s5,2.238,5,5v50 C420,377.762,417.762,380,415,380z"/><path d="M415,330h-50c-2.762,0-5-2.238-5-5v-50c0-2.762,2.238-5,5-5h50c2.762,0,5,2.238,5,5s-2.238,5-5,5h-45v40h45 c2.762,0,5,2.238,5,5S417.762,330,415,330z"/><path d="M315,430h-39.21c-2.762,0-5-2.238-5-5s2.238-5,5-5H315c2.762,0,5,2.238,5,5S317.762,430,315,430z"/><path d="M415,430h-50c-2.762,0-5-2.238-5-5s2.238-5,5-5h50c2.762,0,5,2.238,5,5S417.762,430,415,430z"/><path d="M365,475h-50c-2.762,0-5-2.238-5-5v-45c0-2.762,2.238-5,5-5h50c2.762,0,5,2.238,5,5v45C370,472.762,367.762,475,365,475z M320,465h40v-35h-40V465z"/><path d="M415,475c-2.762,0-5-2.238-5-5v-45c0-2.762,2.238-5,5-5s5,2.238,5,5v45C420,472.762,417.762,475,415,475z"/><path d="M465,330h-50c-2.762,0-5-2.238-5-5v-50c0-2.762,2.238-5,5-5h20c2.762,0,5,2.238,5,5s-2.238,5-5,5h-15v40h40v-45 c0-2.762,2.238-5,5-5s5,2.238,5,5v50C470,327.762,467.762,330,465,330z"/><path d="M137.168,310.72c-1.015,0-2.035-0.308-2.911-0.936c-1.98-1.419-2.649-4.058-1.586-6.248l50.452-103.906H128.18 c-1.697,0-3.279-0.861-4.2-2.287s-1.056-3.221-0.358-4.769l53.94-119.63C178.37,71.152,180.154,70,182.12,70h71.93 c1.718,0,3.315,0.882,4.23,2.335s1.021,3.275,0.279,4.824L235.657,125H315c2.027,0,3.854,1.225,4.625,3.101 c0.771,1.875,0.332,4.031-1.11,5.456l-177.831,175.72C139.718,310.23,138.447,310.72,137.168,310.72z M135.919,189.63h55.19 c1.723,0,3.324,0.887,4.238,2.347s1.012,3.288,0.26,4.837l-41.192,84.835L302.826,135H227.72c-1.718,0-3.315-0.882-4.23-2.335 s-1.021-3.275-0.279-4.824L246.113,80h-60.762L135.919,189.63z"/><path d="M70,300c-11.028,0-20-8.972-20-20s8.972-20,20-20s20,8.972,20,20S81.028,300,70,300z M70,270c-5.514,0-10,4.486-10,10 s4.486,10,10,10s10-4.486,10-10S75.514,270,70,270z"/><path d="M307.5,90C292.337,90,280,77.664,280,62.5S292.337,35,307.5,35S335,47.336,335,62.5S322.663,90,307.5,90z M307.5,45 c-9.649,0-17.5,7.851-17.5,17.5S297.851,80,307.5,80S325,72.149,325,62.5S317.149,45,307.5,45z"/><path fill="#c4eaff" d="M224.833,435c12.43,0,22.5,10.07,22.5,22.5s-10.07,22.5-22.5,22.5s-22.5-10.07-22.5-22.5 S212.403,435,224.833,435z"/><path d="M224.833,485c-15.163,0-27.5-12.336-27.5-27.5s12.337-27.5,27.5-27.5s27.5,12.336,27.5,27.5S239.996,485,224.833,485z M224.833,440c-9.649,0-17.5,7.851-17.5,17.5s7.851,17.5,17.5,17.5s17.5-7.851,17.5-17.5S234.482,440,224.833,440z"/></svg>