<svg xmlns="http://www.w3.org/2000/svg"  viewBox="0 0 256 256" width="64px" height="64px"><path fill="#63bce7" d="M32.035,180.546c-7.535,0-13.665-6.13-13.665-13.665V43.105c0-7.535,6.13-13.665,13.665-13.665h191.931 c7.535,0,13.665,6.13,13.665,13.665v123.776c0,7.535-6.13,13.665-13.665,13.665H32.035z"/><path fill="#f46275" d="M229.221,154.881c0,2.891-2.365,5.256-5.256,5.256H32.035c-2.891,0-5.256-2.365-5.256-5.256V43.105 c0-2.891,2.365-5.256,5.256-5.256h191.931c2.891,0,5.256,2.365,5.256,5.256V154.881z"/><path fill="#f43075" d="M44.838,154.881V43.105c0-2.891,2.365-5.256,5.256-5.256H32.035c-2.891,0-5.256,2.365-5.256,5.256v111.777 c0,2.891,2.365,5.256,5.256,5.256h18.059C47.203,160.137,44.838,157.772,44.838,154.881z"/><path fill="#f48875" d="M211.162,154.881V43.105c0-2.891-2.365-5.256-5.256-5.256h18.059c2.891,0,5.256,2.365,5.256,5.256v111.777 c0,2.891-2.365,5.256-5.256,5.256h-18.059C208.797,160.137,211.162,157.772,211.162,154.881z"/><rect width="62.496" height="19.017" x="96.752" y="180.546" fill="#f8af23"/><rect width="18.059" height="19.017" x="96.752" y="180.546" fill="#f87023"/><rect width="18.059" height="19.017" x="141.19" y="180.546" fill="#f8d323"/><circle cx="128" cy="170.342" r="4.5" fill="#f8af23"/><path fill="#9e9e9e" d="M178.687,215.014H77.312v-10.45c0-2.761,2.239-5,5-5h91.375c2.761,0,5,2.239,5,5V215.014z"/><path fill="#707070" d="M100.371,199.564H82.312c-2.761,0-5,2.239-5,5v10.45h18.059v-10.45 C95.371,201.802,97.61,199.564,100.371,199.564z"/><path fill="#cecece" d="M155.629,199.564h18.059c2.761,0,5,2.239,5,5v10.45h-18.059v-10.45 C160.629,201.802,158.39,199.564,155.629,199.564z"/><rect width="48.5" height="10.75" x="36.5" y="46.138" fill="#9e9e9e"/><rect width="65.75" height="53" x="138.75" y="84.638" fill="#f8af23"/><path fill="#3f3679" d="M155.003,120.531l-7.113-7.67c-0.279-0.301-0.28-0.765-0.002-1.067l7.115-7.74 c0.149-0.162,0.359-0.254,0.579-0.254h6.086c0.685,0,1.043,0.815,0.579,1.319l-6.135,6.676c-0.277,0.302-0.276,0.766,0.002,1.067 l6.119,6.6c0.467,0.503,0.11,1.321-0.577,1.321h-6.078C155.361,120.782,155.152,120.691,155.003,120.531z"/><path fill="#3f3679" d="M179.978,90.241l-9.963,42.155c-0.084,0.355-0.401,0.606-0.765,0.606h-4.725 c-0.508,0-0.882-0.474-0.765-0.968l9.965-42.155c0.084-0.355,0.401-0.606,0.765-0.606h4.724 C179.72,89.273,180.095,89.747,179.978,90.241z"/><path fill="#3f3679" d="M181.877,103.799h6.088c0.22,0,0.43,0.092,0.579,0.254l7.113,7.74c0.277,0.302,0.276,0.766-0.002,1.067 l-7.111,7.67c-0.149,0.161-0.358,0.252-0.577,0.252h-6.079c-0.687,0-1.044-0.818-0.577-1.321l6.121-6.6 c0.279-0.301,0.28-0.765,0.002-1.067l-6.136-6.676C180.834,104.614,181.192,103.799,181.877,103.799z"/><g><path fill="#3f3679" d="M32.035,182.046h63.217v16.018H82.312c-3.584,0-6.5,2.916-6.5,6.5v8.95H27.7c-0.829,0-1.5,0.671-1.5,1.5 s0.671,1.5,1.5,1.5h49.612h101.375H228.3c0.828,0,1.5-0.671,1.5-1.5s-0.672-1.5-1.5-1.5h-48.112v-8.95c0-3.584-2.916-6.5-6.5-6.5 h-12.939v-16.018h63.218c8.361,0,15.164-6.803,15.164-15.165V43.105c0-8.362-6.803-15.165-15.164-15.165H32.035 c-8.362,0-15.165,6.803-15.165,15.165v123.776C16.87,175.243,23.673,182.046,32.035,182.046z M177.187,204.564v8.95H78.812v-8.95 c0-1.93,1.57-3.5,3.5-3.5h14.439h62.496h14.439C175.617,201.064,177.187,202.634,177.187,204.564z M157.748,198.064H98.252 v-16.018h59.496V198.064z M19.87,43.105c0-6.708,5.457-12.165,12.165-12.165h191.931c6.707,0,12.164,5.457,12.164,12.165v123.776 c0,6.708-5.457,12.165-12.164,12.165h-64.718H96.752H32.035c-6.708,0-12.165-5.457-12.165-12.165V43.105z"/><path fill="#3f3679" d="M32.035,161.637h191.931c3.725,0,6.755-3.031,6.755-6.756V43.105c0-3.725-3.03-6.756-6.755-6.756H32.035 c-3.725,0-6.756,3.031-6.756,6.756v111.776C25.279,158.606,28.31,161.637,32.035,161.637z M28.279,43.105 c0-2.071,1.685-3.756,3.756-3.756h191.931c2.07,0,3.755,1.685,3.755,3.756v111.776c0,2.071-1.685,3.756-3.755,3.756H32.035 c-2.071,0-3.756-1.685-3.756-3.756V43.105z"/><path fill="#3f3679" d="M128,164.342c-3.309,0-6,2.691-6,6s2.691,6,6,6s6-2.691,6-6S131.309,164.342,128,164.342z M128,173.342 c-1.654,0-3-1.346-3-3s1.346-3,3-3s3,1.346,3,3S129.654,173.342,128,173.342z"/><path fill="#3f3679" d="M27.7,225.06H9.528c-0.829,0-1.5,0.671-1.5,1.5s0.671,1.5,1.5,1.5H27.7c0.829,0,1.5-0.671,1.5-1.5 S28.529,225.06,27.7,225.06z"/><path fill="#3f3679" d="M246.472,225.06H228.3c-0.828,0-1.5,0.671-1.5,1.5s0.672,1.5,1.5,1.5h18.172c0.828,0,1.5-0.671,1.5-1.5 S247.3,225.06,246.472,225.06z"/><path fill="#3f3679" d="M213.788,225.06H42.211c-0.829,0-1.5,0.671-1.5,1.5s0.671,1.5,1.5,1.5h171.577c0.828,0,1.5-0.671,1.5-1.5 S214.616,225.06,213.788,225.06z"/><path fill="#3f3679" d="M9.528,216.514h7.803c0.829,0,1.5-0.671,1.5-1.5s-0.671-1.5-1.5-1.5H9.528c-0.829,0-1.5,0.671-1.5,1.5 S8.699,216.514,9.528,216.514z"/><path fill="#3f3679" d="M237.169,215.014c0,0.829,0.672,1.5,1.5,1.5h7.803c0.828,0,1.5-0.671,1.5-1.5s-0.672-1.5-1.5-1.5h-7.803 C237.841,213.514,237.169,214.186,237.169,215.014z"/><path fill="#3f3679" d="M36.5,58.388H85c0.829,0,1.5-0.671,1.5-1.5v-3.875h68.936c8.181,0,14.837,6.656,14.837,14.837v15.288H138.75 c-0.828,0-1.5,0.671-1.5,1.5v53c0,0.829,0.672,1.5,1.5,1.5h65.75c0.828,0,1.5-0.671,1.5-1.5v-53c0-0.829-0.672-1.5-1.5-1.5 h-31.228V67.85c0-9.835-8.002-17.837-17.837-17.837H86.5v-3.875c0-0.829-0.671-1.5-1.5-1.5H36.5c-0.829,0-1.5,0.671-1.5,1.5v10.75 C35,57.716,35.671,58.388,36.5,58.388z M203,136.138h-62.75v-50H203V136.138z M38,47.638h45.5v7.75H38V47.638z"/><path fill="#3f3679" d="M75.5,50.013H46c-0.829,0-1.5,0.671-1.5,1.5s0.671,1.5,1.5,1.5h29.5c0.829,0,1.5-0.671,1.5-1.5 S76.329,50.013,75.5,50.013z"/><path fill="#3f3679" d="M128,74.337H47.75c-0.829,0-1.5,0.671-1.5,1.5s0.671,1.5,1.5,1.5H128c0.829,0,1.5-0.671,1.5-1.5 S128.829,74.337,128,74.337z"/><path fill="#3f3679" d="M128,87.474H47.75c-0.829,0-1.5,0.671-1.5,1.5s0.671,1.5,1.5,1.5H128c0.829,0,1.5-0.671,1.5-1.5 S128.829,87.474,128,87.474z"/><path fill="#3f3679" d="M128,100.609H47.75c-0.829,0-1.5,0.671-1.5,1.5s0.671,1.5,1.5,1.5H128c0.829,0,1.5-0.671,1.5-1.5 S128.829,100.609,128,100.609z"/><path fill="#3f3679" d="M128,113.745H47.75c-0.829,0-1.5,0.671-1.5,1.5s0.671,1.5,1.5,1.5H128c0.829,0,1.5-0.671,1.5-1.5 S128.829,113.745,128,113.745z"/><path fill="#3f3679" d="M128,126.881H47.75c-0.829,0-1.5,0.671-1.5,1.5s0.671,1.5,1.5,1.5H128c0.829,0,1.5-0.671,1.5-1.5 S128.829,126.881,128,126.881z"/><path fill="#3f3679" d="M128,140.017H47.75c-0.829,0-1.5,0.671-1.5,1.5s0.671,1.5,1.5,1.5H128c0.829,0,1.5-0.671,1.5-1.5 S128.829,140.017,128,140.017z"/></g></svg>